Coordinates
version=1
nRows=43
nColumns=12
inDegrees=yes

Units are S.I. units (second, meters, Newtons, ...)
Angles are in degrees

endheader
time	SC_y	SC_z	SC_x	AC_y	AC_z	AC_x	GH_y	GH_z	GH_yy	EL_x	PS_y
       0.0               -47.1          8.673          81.22          42.02         -3.597          10.77         -159.8          73.02          93.57          78.31          44.86
   0.04616               -47.1          8.673          81.22          42.02         -3.597          10.77         -159.8          73.01          93.54           78.3          44.88
   0.09232               -47.1          8.673          81.22          42.03         -3.597          10.77         -159.7          73.01           93.5          78.29          44.89
    0.1385              -47.09          8.674          81.21          42.03         -3.598          10.77         -159.7           73.0          93.46          78.28          44.91
    0.1846              -47.09          8.674          81.21          42.04         -3.598          10.77         -159.7           73.0          93.41          78.27          44.93
    0.2308              -47.09          8.674          81.21          42.04         -3.598          10.77         -159.6          72.99          93.36          78.25          44.95
    0.2769              -47.09          8.674          81.21          42.05         -3.599          10.77         -159.6          72.98          93.31          78.24          44.97
    0.3231              -47.08          8.675          81.21          42.05         -3.599          10.77         -159.5          72.98          93.26          78.23          44.99
    0.3693              -47.08          8.675          81.21          42.06         -3.599          10.77         -159.5          72.97           93.2          78.21          45.01
    0.4154              -47.08          8.675          81.21          42.07           -3.6          10.77         -159.4          72.96          93.13          78.19          45.04
    0.4616              -47.07          8.676           81.2          42.07           -3.6          10.77         -159.4          72.95          93.07          78.18          45.06
    0.5077              -47.07          8.676           81.2          42.08           -3.6          10.77         -159.3          72.94          92.99          78.16          45.09
    0.5539              -47.06          8.677           81.2          42.09         -3.601          10.77         -159.2          72.93          92.92          78.13          45.12
    0.6001              -47.06          8.677           81.2           42.1         -3.601          10.77         -159.2          72.92          92.83          78.11          45.15
    0.6462              -47.05          8.678           81.2          42.11         -3.602          10.77         -159.1          72.91          92.74          78.09          45.19
    0.6924              -47.05          8.678          81.19          42.12         -3.602          10.77         -159.0          72.89          92.64          78.06          45.23
    0.7385              -47.04          8.679          81.19          42.13         -3.603          10.77         -158.9          72.88          92.53          78.03          45.27
    0.7847              -47.04          8.679          81.19          42.15         -3.603          10.77         -158.8          72.86          92.42           78.0          45.32
    0.8308              -47.03           8.68          81.18          42.16         -3.604          10.77         -158.7          72.84          92.29          77.97          45.37
     0.877              -47.02          8.681          81.18          42.17         -3.605          10.77         -158.5          72.82          92.15          77.93          45.42
    0.9232              -47.01          8.681          81.18          42.19         -3.606          10.77         -158.4           72.8          91.99          77.89          45.48
    0.9693               -47.0          8.682          81.17          42.21         -3.607          10.77         -158.3          72.78          91.82          77.84          45.55
     1.015              -46.99          8.683          81.17          42.23         -3.608          10.76         -158.1          72.75          91.64          77.79          45.62
     1.062              -46.98          8.685          81.16          42.25         -3.609          10.76         -157.9          72.73          91.43          77.74           45.7
     1.108              -46.97          8.686          81.15          42.28          -3.61          10.76         -157.7           72.7           91.2          77.68          45.79
     1.154              -46.95          8.687          81.15           42.3         -3.612          10.76         -157.5          72.66          90.94          77.61          45.89
       1.2              -46.94          8.689          81.14          42.34         -3.613          10.76         -157.2          72.62          90.65          77.53          46.01
     1.246              -46.92           8.69          81.13          42.37         -3.615          10.76         -156.9          72.58          90.33          77.45          46.13
     1.292               -46.9          8.692          81.12          42.41         -3.617          10.76         -156.6          72.53          89.96          77.35          46.28
     1.339              -46.88          8.695          81.11          42.46         -3.619          10.76         -156.2          72.47          89.54          77.24          46.44
     1.385              -46.85          8.697           81.1          42.51         -3.622          10.76         -155.8           72.4          89.07          77.11          46.63
     1.431              -46.82            8.7          81.08          42.57         -3.625          10.76         -155.3          72.33          88.52          76.97          46.84
     1.477              -46.78          8.703          81.07          42.63         -3.629          10.76         -154.7          72.24          87.89           76.8          47.09
     1.523              -46.74          8.707          81.05          42.71         -3.633          10.75         -154.1          72.14          87.16          76.61          47.37
     1.569              -46.69          8.712          81.02          42.81         -3.637          10.75         -153.3          72.03           86.3          76.38          47.71
     1.616              -46.64          8.717           81.0          42.92         -3.643          10.75         -152.4          71.89          85.29          76.11           48.1
     1.662              -46.57          8.724          80.97          43.05          -3.65          10.75         -151.3          71.72          84.09          75.79          48.57
     1.708              -46.49          8.731          80.93           43.2         -3.658          10.74         -150.0          71.53          82.65          75.41          49.13
     1.754              -46.39          8.741          80.88          43.39         -3.667          10.74         -148.5          71.29          80.91          74.95          49.81
       1.8              -46.28          8.752          80.83          43.62         -3.679          10.74         -146.6           71.0          78.78          74.38          50.64
     1.846              -46.13          8.766          80.76           43.9         -3.694          10.73         -144.2          70.64          76.16          73.69          51.67
     1.892              -45.95          8.784          80.67          44.26         -3.712          10.72         -141.3          70.19          72.89          72.82          52.95
     1.939              -45.72          8.806          80.56           44.7         -3.735          10.71         -137.6          69.63          68.76          71.72          54.56
